<?xml version="1.0" standalone="no"?>
<!DOCTYPE svg PUBLIC "-//W3C//DTD SVG 20010904//EN"
 "http://www.w3.org/TR/2001/REC-SVG-20010904/DTD/svg10.dtd">
<svg version="1.0" xmlns="http://www.w3.org/2000/svg"
 width="300.000000pt" height="300.000000pt" viewBox="0 0 300.000000 300.000000"
 preserveAspectRatio="xMidYMid meet">
<metadata>
Created by potrace 1.11, written by Peter Selinger 2001-2013
</metadata>
<g transform="translate(0.000000,300.000000) scale(0.100000,-0.100000)"
fill="#000000" stroke="none">
<path d="M1428 2715 c-2 -1 -34 -5 -72 -9 -126 -12 -368 -88 -417 -132 -8 -8
-19 -14 -23 -14 -18 0 -137 -90 -191 -145 -153 -155 -256 -345 -319 -588 -14
-52 -28 -121 -31 -153 -4 -32 -9 -68 -11 -79 -6 -26 -5 -264 0 -290 2 -11 7
-46 10 -78 51 -438 377 -809 806 -917 124 -31 138 -32 315 -35 138 -3 186 0
257 16 202 44 349 122 501 265 48 45 61 53 73 43 18 -15 72 -126 88 -182 11
-39 15 -42 49 -45 25 -2 37 1 38 10 0 7 1 194 2 416 l2 402 -37 0 c-31 0 -39
-4 -43 -23 -63 -291 -135 -445 -270 -583 -67 -68 -96 -89 -175 -127 -82 -39
-124 -54 -245 -84 -50 -12 -234 -11 -296 2 -310 66 -534 297 -628 645 -38 141
-46 222 -46 445 0 207 6 270 36 417 92 458 373 731 749 731 203 0 362 -48 518
-155 166 -115 287 -327 342 -604 18 -94 16 -90 57 -86 l38 4 -2 46 c-1 43 -12
513 -17 737 -1 50 -5 95 -9 101 -3 6 -16 10 -29 8 -13 -1 -28 -3 -33 -3 -6 -1
-16 -33 -23 -71 -7 -39 -26 -107 -43 -151 l-31 -81 -52 52 c-124 125 -331 233
-529 276 -60 13 -299 28 -309 19z"/>
</g>
</svg>
